<svg height="512pt" viewBox="0 0 512 512" width="512pt" xmlns="http://www.w3.org/2000/svg"><path d="m183.609375 204.570312-30.527344-30.523437 20.960938-20.960937 30.527343 30.523437zm0 0" fill="#495059"/><path d="m328.390625 307.425781 30.527344 30.523438-20.964844 20.964843-30.523437-30.527343zm0 0" fill="#495059"/><path d="m225.050781 374.363281-87.414062-87.414062c-10.054688-10.050781-10.054688-26.351563 0-36.40625l112.90625-112.90625c10.054687-10.054688 26.351562-10.054688 36.40625 0l87.414062 87.414062c10.054688 10.054688 10.054688 26.351563 0 36.40625l-112.90625 112.90625c-10.054687 10.054688-26.355469 10.054688-36.40625 0zm0 0" fill="#7397da"/><path d="m225.050781 374.363281c10.050781 10.054688 26.351563 10.054688 36.40625 0l112.90625-112.90625c10.054688-10.054687 10.054688-26.351562 0-36.40625l-10.613281-10.613281c-56.617188 58.050781-129.605469 107.34375-174.664062 123.960938zm0 0" fill="#6988c4"/><path d="m374.363281 225.050781-87.414062-87.414062c-10.050781-10.054688-26.351563-10.054688-36.40625 0l-69.503907 69.5 123.824219 123.824219 69.5-69.503907c10.054688-10.054687 10.054688-26.355469 0-36.40625zm0 0" fill="#f0f0ef"/><path d="m304.859375 330.960938 69.503906-69.503907c10.054688-10.054687 10.054688-26.355469 0-36.40625l-10.613281-10.613281c-29.429688 30.175781-63.285156 57.984375-95.34375 80.070312zm0 0" fill="#e3e2e1"/><path d="m380.535156 138.964844c-1.917968 0-3.839844-.734375-5.300781-2.199219-2.929687-2.925781-2.929687-7.675781 0-10.605469l39.277344-39.277344c2.929687-2.929687 7.679687-2.929687 10.605469 0 2.929687 2.925782 2.929687 7.675782 0 10.605469l-39.277344 39.277344c-1.464844 1.464844-3.382813 2.199219-5.304688 2.199219zm0 0" fill="#7397da"/><path d="m441.035156 90.0625c0 10.546875-8.546875 19.097656-19.097656 19.097656-10.546875 0-19.097656-8.550781-19.097656-19.097656 0-10.550781 8.550781-19.097656 19.097656-19.097656 10.550781 0 19.097656 8.546875 19.097656 19.097656zm0 0" fill="#495059"/><path d="m340.816406 73.097656c-5.824218-5.824218-15.511718-4.914062-20.160156 1.890625-22.261719 32.59375-18.925781 77.425781 10 106.355469 28.929688 28.925781 73.757812 32.261719 106.355469 10 6.800781-4.648438 7.714843-14.335938 1.890625-20.160156zm0 0" fill="#495059"/><path d="m438.902344 171.183594-9.980469-9.980469c-36.195313 24.683594-73.636719 20.339844-105.371094 12.050781 2.167969 2.808594 4.53125 5.511719 7.105469 8.089844 28.929688 28.925781 73.761719 32.261719 106.355469 10 6.800781-4.648438 7.714843-14.335938 1.890625-20.160156zm0 0" fill="#41464f"/><path d="m241.019531 50.835938-43.535156-43.53125c-9.738281-9.738282-25.53125-9.738282-35.269531 0l-154.910156 154.910156c-9.738282 9.738281-9.738282 25.53125 0 35.273437l43.53125 43.53125c9.742187 9.738281 25.53125 9.738281 35.273437 0l154.910156-154.910156c9.738281-9.742187 9.738281-25.53125 0-35.273437zm0 0" fill="#7397da"/><path d="m241.019531 86.109375c9.738281-9.742187 9.738281-25.53125 0-35.273437l-8.136719-8.136719c-95.722656 118.121093-158.773437 166.960937-211.628906 168.738281l29.582032 29.582031c9.742187 9.738281 25.53125 9.738281 35.273437 0zm0 0" fill="#6988c4"/><path d="m58.367188 111.152344 78.804687 78.804687-10.609375 10.605469-78.800781-78.804688zm0 0" fill="#80bbe6"/><path d="m121.761719 47.757812 78.800781 78.804688-10.605469 10.605469-78.804687-78.804688zm0 0" fill="#80bbe6"/><path d="m461.164062 270.980469 43.53125 43.53125c9.738282 9.742187 9.738282 25.535156 0 35.273437l-154.910156 154.910156c-9.738281 9.738282-25.53125 9.738282-35.273437 0l-43.53125-43.53125c-9.738281-9.742187-9.738281-25.53125 0-35.273437l154.910156-154.910156c9.742187-9.738281 25.53125-9.738281 35.273437 0zm0 0" fill="#7397da"/><path d="m504.695312 349.785156c9.738282-9.738281 9.738282-25.53125 0-35.273437l-8.136718-8.136719c-95.71875 118.121094-158.773438 166.960938-211.628906 168.734375l29.585937 29.585937c9.738281 9.738282 25.53125 9.738282 35.269531 0zm0 0" fill="#6988c4"/><path d="m322.042969 374.824219 78.804687 78.804687-10.609375 10.605469-78.800781-78.804687zm0 0" fill="#80bbe6"/><path d="m385.4375 311.429688 78.800781 78.804687-10.605469 10.605469-78.804687-78.800782zm0 0" fill="#80bbe6"/><path d="m273.84375 252.257812 27.011719 27.011719c3.550781 3.550781 9.308593 3.550781 12.859375 0l27.011718-27.011719c3.550782-3.550781 3.550782-9.308593 0-12.859374l-27.011718-27.011719c-3.550782-3.550781-9.308594-3.550781-12.859375 0l-27.011719 27.011719c-3.550781 3.550781-3.550781 9.308593 0 12.859374zm0 0" fill="#f7c67b"/><path d="m300.855469 279.269531c3.550781 3.550781 9.308593 3.550781 12.863281 0l27.007812-27.007812c3.554688-3.550781 3.554688-9.3125 0-12.863281l-1.371093-1.371094c-14.085938 12.886718-28.730469 25.109375-43.371094 36.371094zm0 0" fill="#ebb460"/><path d="m284.738281 183.144531c0 6.46875-5.238281 11.710938-11.707031 11.710938-6.464844 0-11.707031-5.242188-11.707031-11.710938 0-6.464843 5.242187-11.707031 11.707031-11.707031 6.46875 0 11.707031 5.242188 11.707031 11.707031zm0 0" fill="#eb8d9a"/><path d="m256.3125 211.574219c0 6.464843-5.242188 11.707031-11.707031 11.707031-6.46875 0-11.710938-5.242188-11.710938-11.707031 0-6.464844 5.242188-11.707031 11.710938-11.707031 6.464843 0 11.707031 5.242187 11.707031 11.707031zm0 0" fill="#7bd0a7"/><path d="m186.277344 283.757812c5.398437-5.394531 4.277344-15.261718-2.496094-22.035156-6.777344-6.773437-16.640625-7.894531-22.039062-2.5-5.394532 5.398438-4.273438 15.261719 2.5 22.039063 6.773437 6.773437 16.640624 7.894531 22.035156 2.496093zm0 0" fill="#fff"/><path d="m228.238281 325.726562c-5.394531 5.394532-4.277343 15.261719 2.496094 22.035157 6.777344 6.777343 16.644531 7.894531 22.039063 2.5 5.394531-5.394531 4.277343-15.261719-2.5-22.039063-6.773438-6.773437-16.640626-7.890625-22.035157-2.496094zm0 0" fill="#fff"/><g fill="#495059"><path d="m190.90625 276.398438c-1.917969 0-3.839844-.730469-5.304688-2.195313-2.925781-2.929687-2.925781-7.679687 0-10.605469l4.332032-4.332031c2.929687-2.929687 7.679687-2.929687 10.605468 0 2.929688 2.925781 2.929688 7.675781 0 10.605469l-4.328124 4.332031c-1.464844 1.464844-3.386719 2.195313-5.304688 2.195313zm0 0"/><path d="m243.101562 328.59375c-1.917968 0-3.839843-.730469-5.304687-2.195312-2.929687-2.929688-2.929687-7.679688 0-10.609376l4.332031-4.332031c2.929688-2.929687 7.679688-2.929687 10.605469 0 2.929687 2.929688 2.929687 7.679688 0 10.605469l-4.332031 4.332031c-1.460938 1.46875-3.382813 2.199219-5.300782 2.199219zm0 0"/><path d="m222.804688 309.601562c-5.398438 0-10.59375-2.136718-14.429688-5.972656-4.171875-4.171875-6.332031-9.941406-5.925781-15.832031.285156-4.132813 3.871093-7.257813 7.996093-6.972656 4.132813.285156 7.253907 3.867187 6.96875 7.996093-.109374 1.589844.445313 3.082032 1.566407 4.199219 1.121093 1.121094 2.613281 1.671875 4.199219 1.566407 4.132812-.285157 7.710937 2.835937 7.996093 6.96875.285157 4.132812-2.835937 7.714843-6.96875 7.996093-.46875.035157-.9375.050781-1.402343.050781zm0 0"/></g></svg>